Hanif_Medium_2_5_grf.mot
version=1
nRows=21
nColumns=19
inDegrees=yes
endheader
time	right_ground_force_vx	right_ground_force_vy	right_ground_force_vz	right_ground_force_px	right_ground_force_py	right_ground_force_pz	right_ground_torque_x	right_ground_torque_y	right_ground_torque_z	left_ground_force_vx	left_ground_force_vy	left_ground_force_vz	left_ground_force_px	left_ground_force_py	left_ground_force_pz	left_ground_torque_x	left_ground_torque_y	left_ground_torque_z
0.000000	2.784920	264.239000	57.184600	0.192686	0.000000	-1.454060	-13.712000	1.677050	-1.691400	-7.169390	274.885000	-57.218300	0.220819	0.000000	-0.962053	16.295900	-0.802048	6.225730
0.005000	2.529890	264.223000	57.020100	0.192906	0.000000	-1.453510	-13.857200	1.671220	-1.629790	-7.203430	275.016000	-57.578500	0.220828	0.000000	-0.961682	16.203200	-0.848657	6.245140
0.010000	2.965170	263.356000	56.976700	0.191714	0.000000	-1.454110	-13.653300	1.719230	-1.945510	-7.372840	275.123000	-57.226000	0.220656	0.000000	-0.961574	16.182700	-0.912588	6.208380
0.015000	2.868810	264.469000	56.996700	0.192229	0.000000	-1.453930	-13.756800	1.785620	-1.798060	-7.755820	275.110000	-57.447200	0.220183	0.000000	-0.962300	16.384500	-0.876071	6.073590
0.020000	2.949320	263.327000	57.063000	0.192830	0.000000	-1.453990	-13.682800	1.688350	-1.644110	-7.484650	275.543000	-57.754100	0.220679	0.000000	-0.962481	16.457900	-0.875429	6.225050
0.025000	2.835980	263.199000	57.295700	0.191566	0.000000	-1.454330	-13.588900	1.677020	-1.991920	-7.372370	276.282000	-57.655400	0.220380	0.000000	-0.961444	16.215900	-0.976391	6.169500
0.030000	2.953130	263.623000	56.792700	0.191913	0.000000	-1.453900	-13.721000	1.765250	-1.883830	-7.598830	274.996000	-57.877000	0.220743	0.000000	-0.961923	16.275600	-0.957387	6.252670
0.035000	2.836930	264.398000	56.979900	0.191408	0.000000	-1.453780	-13.794800	1.773310	-2.027110	-7.449480	275.648000	-57.733900	0.220006	0.000000	-0.961692	16.245700	-0.905167	6.037780
0.040000	3.359880	265.513000	57.103700	0.191695	0.000000	-1.454310	-13.710800	1.755340	-1.966930	-7.666030	278.230000	-57.736300	0.219238	0.000000	-0.960859	16.165900	-0.901756	5.862290
0.045000	3.081380	263.765000	57.381500	0.191856	0.000000	-1.453880	-13.735700	1.679850	-1.919380	-7.329250	276.438000	-58.235800	0.219631	0.000000	-0.961682	16.288900	-0.949152	5.958280
0.050000	3.105290	262.705000	57.083300	0.191300	0.000000	-1.454290	-13.571600	1.701330	-2.058740	-7.482760	275.250000	-58.095300	0.219507	0.000000	-0.962097	16.334800	-0.935357	5.899240
0.055000	3.485610	263.926000	57.260100	0.190883	0.000000	-1.454550	-13.564300	1.777510	-2.172670	-7.353280	276.628000	-58.158700	0.219058	0.000000	-0.961402	16.220300	-0.900651	5.784620
0.060000	3.218070	262.824000	57.037100	0.191462	0.000000	-1.455400	-13.284500	1.845940	-1.984280	-7.661220	276.660000	-57.816600	0.219677	0.000000	-0.961747	16.322900	-0.940134	5.972180
0.065000	3.303190	262.725000	57.012600	0.191214	0.000000	-1.454600	-13.489800	1.765610	-2.070590	-7.283630	275.902000	-58.259700	0.219841	0.000000	-0.961527	16.215500	-0.985101	6.016240
0.070000	3.494740	263.528000	56.847100	0.190690	0.000000	-1.454200	-13.637000	1.777890	-2.223020	-7.369250	276.633000	-58.081900	0.218989	0.000000	-0.962395	16.498200	-0.996288	5.785560
0.075000	3.122740	263.566000	57.088800	0.191383	0.000000	-1.455040	-13.415800	1.870100	-2.007030	-7.270260	277.922000	-58.220600	0.219416	0.000000	-0.960854	16.145400	-0.992480	5.929040
0.080000	3.158000	262.615000	56.813700	0.190013	0.000000	-1.454510	-13.507800	1.820450	-2.386890	-6.976330	277.263000	-58.547100	0.219283	0.000000	-0.961556	16.299000	-0.991792	5.880560
0.085000	3.067060	262.523000	56.747700	0.189522	0.000000	-1.454750	-13.441300	1.908710	-2.500640	-6.779410	278.281000	-58.734700	0.219523	0.000000	-0.961293	16.282700	-0.949545	5.958610
0.090000	2.930180	263.364000	56.818200	0.190299	0.000000	-1.454470	-13.558200	1.812070	-2.315400	-6.914140	277.172000	-58.748600	0.219600	0.000000	-0.961570	16.296300	-0.945052	5.962740
0.095000	3.238490	262.437000	57.057600	0.191036	0.000000	-1.454290	-13.556000	1.776920	-2.113840	-7.170050	277.277000	-58.790600	0.219332	0.000000	-0.961179	16.196700	-0.958683	5.893060
0.100000	3.083920	262.357000	57.133500	0.190669	0.000000	-1.454800	-13.418800	1.875510	-2.190110	-7.034710	278.474000	-58.796300	0.219042	0.000000	-0.961109	16.246100	-1.014270	5.839400
